<svg xmlns="http://www.w3.org/2000/svg" viewBox="0 0 32 40" x="0px" y="0px"><title>todolist, list</title><g data-name="Layer 2"><path d="M10.455,26.634c.037.024.078.039.115.061a2.9,2.9,0,0,0,.4.213c.057.023.117.033.175.053a3.092,3.092,0,0,0,.381.113,2.7,2.7,0,0,0,1.536-.113c.059-.019.12-.03.177-.053a2.932,2.932,0,0,0,.4-.208c.041-.024.085-.04.125-.066a3.067,3.067,0,0,0,.466-.381l1.414-1.414L29.08,11.4a3,3,0,0,0,0-4.243L27.666,5.747a3,3,0,0,0-4.243,0L12.11,17.061,8.575,13.525a3.08,3.08,0,0,0-4.243,0L2.917,14.939a3.007,3.007,0,0,0,0,4.243l7.071,7.071A3.016,3.016,0,0,0,10.455,26.634ZM24.837,7.161a1,1,0,0,1,1.415,0l1.414,1.414a1,1,0,0,1,0,1.413L14.005,23.651l-1.189,1.188a1.029,1.029,0,0,1-1.414,0L9.281,22.718Zm-20.8,9.9a.989.989,0,0,1,.291-.707l1.414-1.415a1.029,1.029,0,0,1,1.414,0L10.7,18.475,7.867,21.3,4.332,17.768A.992.992,0,0,1,4.041,17.061Z"/></g><text x="0" y="47" fill="#000000" font-size="5px" font-weight="bold" font-family="'Helvetica Neue', Helvetica, Arial-Unicode, Arial, Sans-serif">Created by Kiki Rizky</text><text x="0" y="52" fill="#000000" font-size="5px" font-weight="bold" font-family="'Helvetica Neue', Helvetica, Arial-Unicode, Arial, Sans-serif">from the Noun Project</text></svg>